<?xml version="1.0" standalone="no"?>
<!DOCTYPE svg PUBLIC "-//W3C//DTD SVG 1.1//EN" "http://www.w3.org/Graphics/SVG/1.1/DTD/svg11.dtd">
<svg version="1.1" xmlns="http://www.w3.org/2000/svg" viewBox="0 0 298.97144426618297 301.94288417271207" width="298.97144426618297" height="301.94288417271207"><!-- svg-source:excalidraw --><metadata></metadata><defs><style class="style-fonts">
      </style></defs><rect x="0" y="0" width="298.97144426618297" height="301.94288417271207" fill="#ffffff"></rect><g stroke-linecap="round" transform="translate(10 10) rotate(0 139.48572213309149 140.97144208635603)"><path d="M155.58 1.03 C170.04 0.64, 185.55 7.72, 199.26 14.38 C212.98 21.04, 227.13 30.34, 237.87 41 C248.61 51.67, 256.98 64.62, 263.71 78.38 C270.45 92.13, 276.35 108.55, 278.29 123.54 C280.22 138.54, 278.26 153.65, 275.31 168.32 C272.36 182.99, 268.02 198.2, 260.61 211.58 C253.19 224.96, 242.43 238.64, 230.8 248.61 C219.17 258.58, 204.91 265.86, 190.84 271.39 C176.77 276.92, 161.35 281.08, 146.38 281.78 C131.41 282.48, 115.67 279.98, 101.03 275.6 C86.38 271.23, 71.04 264.32, 58.53 255.52 C46.02 246.71, 34.73 235.06, 25.98 222.75 C17.23 210.44, 10.32 196.26, 6.02 181.65 C1.72 167.03, -0.37 150.22, 0.2 135.05 C0.78 119.87, 4.2 104.77, 9.46 90.6 C14.71 76.42, 22.17 61.56, 31.74 49.99 C41.31 38.42, 53.74 28.89, 66.86 21.19 C79.98 13.49, 93.46 6.69, 110.47 3.78 C127.48 0.87, 156.83 2.87, 168.93 3.72 C181.03 4.58, 183.42 6.69, 183.09 8.91 M173.06 5.74 C187.8 7.47, 204.28 15.65, 217.29 23.84 C230.31 32.03, 242.27 43.03, 251.15 54.89 C260.04 66.75, 266.05 80.62, 270.6 95.02 C275.14 109.42, 278.16 125.92, 278.42 141.29 C278.68 156.66, 277.17 172.62, 272.17 187.24 C267.17 201.86, 258.06 217.23, 248.43 229.02 C238.79 240.8, 226.83 249.68, 214.38 257.96 C201.93 266.24, 188.46 274.93, 173.72 278.7 C158.99 282.47, 141.24 281.95, 125.95 280.57 C110.67 279.18, 95.44 276.55, 82.03 270.4 C68.63 264.26, 56.49 254.1, 45.52 243.69 C34.56 233.29, 23.59 221.49, 16.25 207.98 C8.91 194.48, 3.89 177.98, 1.49 162.67 C-0.91 147.37, -0.69 130.88, 1.86 116.17 C4.41 101.46, 9.49 87.62, 16.79 74.43 C24.1 61.23, 34.35 47.31, 45.69 37 C57.02 26.7, 70.96 18.74, 84.81 12.62 C98.65 6.49, 113.95 1.53, 128.74 0.28 C143.53 -0.97, 166.21 4.04, 173.55 5.1 C180.89 6.16, 173.05 4.38, 172.78 6.65" stroke="#1e1e1e" stroke-width="2" fill="none"></path></g></svg>